<svg width="67" height="67" viewBox="0 0 67 67" fill="none" xmlns="http://www.w3.org/2000/svg">
<path fill-rule="evenodd" clip-rule="evenodd" d="M33.5 2.79175C22.9084 2.79175 17.1728 8.45565 14.2467 14.0627C12.8165 16.8031 12.055 19.5124 11.6481 21.516C11.4433 22.524 11.325 23.37 11.2572 23.9745C11.2146 24.3551 11.1666 24.7417 11.1666 25.1251C11.1666 32.725 14.6064 37.1675 17.572 39.5118C19.0474 40.678 19.8685 41.8722 19.9996 42.9212L21.7435 56.8722C22.2674 61.0633 25.8301 64.2084 30.0538 64.2084H36.9461C41.1698 64.2084 44.7325 61.0633 45.2564 56.8722L47.0003 42.9212C47.1314 41.8722 47.9526 40.678 49.4279 39.5118C52.3935 37.1675 55.8333 32.725 55.8333 25.1251C55.8333 24.7417 55.7853 24.3551 55.7427 23.9745C55.675 23.37 55.5566 22.524 55.3519 21.516C54.9449 19.5124 54.1834 16.8031 52.7532 14.0627C49.8271 8.45565 44.0915 2.79175 33.5 2.79175ZM21.0344 35.1317C17.973 32.7117 16.3736 28.4541 16.8058 24.5963C16.8578 24.1322 16.9523 23.4515 17.1196 22.6274C17.4569 20.9669 18.0771 18.7908 19.1965 16.6458C21.3695 12.482 25.4047 8.37508 33.5 8.37508C41.5952 8.37508 45.6304 12.482 47.8034 16.6458C48.9228 18.7908 49.543 20.9669 49.8803 22.6274C50.0476 23.4515 50.1421 24.1322 50.1941 24.5963C50.6263 28.4541 49.0269 32.7117 45.9655 35.1317C44.0673 36.6322 41.8623 39.0107 41.4601 42.2287L40.8064 47.4584H26.1936L25.5398 42.2287C25.1376 39.0107 22.9326 36.6322 21.0344 35.1317ZM26.8915 53.0417L27.2837 56.1797C27.4583 57.5767 28.6459 58.6251 30.0538 58.6251H36.9461C38.354 58.6251 39.5416 57.5767 39.7162 56.1797L40.1084 53.0417H26.8915Z" fill="#0F0F0F"/>
</svg>
