<svg width="72" height="72" viewBox="0 0 72 72" fill="none" xmlns="http://www.w3.org/2000/svg">
<path d="M28.2 22.6C27.6 21.8 26.4 21.8 25.8 22.6L18.675 32.1C18.275 32.6333 18.275 33.3667 18.675 33.9L25.8 43.4C26.4 44.2 27.6 44.2 28.2 43.4L35.325 33.9C35.725 33.3667 35.725 32.6333 35.325 32.1L28.2 22.6Z" fill="#0F0F0F"/>
<path d="M12.2773 16.916C12.1094 16.6641 12.1094 16.3359 12.2773 16.084L14.376 12.9361C14.6728 12.4908 15.3272 12.4908 15.624 12.9361L17.7226 16.084C17.8906 16.3359 17.8906 16.6641 17.7226 16.916L15.624 20.0639C15.3272 20.5092 14.6728 20.5092 14.376 20.0639L12.2773 16.916Z" fill="#0F0F0F"/>
<path d="M39.624 45.9361C39.3272 45.4908 38.6728 45.4908 38.376 45.9361L36.2773 49.084C36.1094 49.3359 36.1094 49.6641 36.2773 49.916L38.376 53.0639C38.6728 53.5092 39.3272 53.5092 39.624 53.0639L41.7226 49.916C41.8906 49.6641 41.8906 49.3359 41.7226 49.084L39.624 45.9361Z" fill="#0F0F0F"/>
<path fill-rule="evenodd" clip-rule="evenodd" d="M3 12C3 7.02944 7.02944 3 12 3H42C45.3969 3 48.3543 4.88196 49.8864 7.66012L62.5169 11.0445C67.3181 12.3309 70.1674 17.266 68.8809 22.0672L58.0105 62.636C56.724 67.4372 51.789 70.2865 46.9878 69L24.5955 63H12C7.02944 63 3 58.9706 3 54V12ZM51 54V14.1702L60.964 16.84C62.5644 17.2688 63.5141 18.9138 63.0853 20.5142L52.2149 61.0831C51.7861 62.6835 50.1411 63.6333 48.5407 63.2044L45.3595 62.352C48.666 61.0208 51 57.783 51 54ZM12 9C10.3431 9 9 10.3431 9 12V54C9 55.6569 10.3431 57 12 57H42C43.6569 57 45 55.6569 45 54V12C45 10.3431 43.6569 9 42 9H12Z" fill="#0F0F0F"/>
</svg>
