<svg width="75" height="75" viewBox="0 0 75 75" fill="none" xmlns="http://www.w3.org/2000/svg">
<path d="M43.75 39.0624C43.75 41.6513 41.6513 43.7499 39.0625 43.7499C36.4736 43.7499 34.375 41.6513 34.375 39.0624C34.375 36.4736 36.4736 34.3749 39.0625 34.3749C41.6513 34.3749 43.75 36.4736 43.75 39.0624Z" fill="#0F0F0F"/>
<path d="M51.5625 31.2499C54.1513 31.2499 56.25 29.1513 56.25 26.5624C56.25 23.9736 54.1513 21.8749 51.5625 21.8749C48.9736 21.8749 46.875 23.9736 46.875 26.5624C46.875 29.1513 48.9736 31.2499 51.5625 31.2499Z" fill="#0F0F0F"/>
<path d="M40.625 20.3124C40.625 22.9013 38.5263 24.9999 35.9375 24.9999C33.3486 24.9999 31.25 22.9013 31.25 20.3124C31.25 17.7236 33.3486 15.6249 35.9375 15.6249C38.5263 15.6249 40.625 17.7236 40.625 20.3124Z" fill="#0F0F0F"/>
<path d="M23.4375 37.4999C26.0263 37.4999 28.125 35.4013 28.125 32.8124C28.125 30.2236 26.0263 28.1249 23.4375 28.1249C20.8486 28.1249 18.75 30.2236 18.75 32.8124C18.75 35.4013 20.8486 37.4999 23.4375 37.4999Z" fill="#0F0F0F"/>
<path d="M43.75 54.6874C43.75 57.2763 41.6513 59.3749 39.0625 59.3749C36.4736 59.3749 34.375 57.2763 34.375 54.6874C34.375 52.0986 36.4736 49.9999 39.0625 49.9999C41.6513 49.9999 43.75 52.0986 43.75 54.6874Z" fill="#0F0F0F"/>
<path d="M23.4375 53.1249C26.0263 53.1249 28.125 51.0263 28.125 48.4374C28.125 45.8486 26.0263 43.7499 23.4375 43.7499C20.8486 43.7499 18.75 45.8486 18.75 48.4374C18.75 51.0263 20.8486 53.1249 23.4375 53.1249Z" fill="#0F0F0F"/>
<path fill-rule="evenodd" clip-rule="evenodd" d="M35.9428 3.1938C48.1403 2.47378 61.1362 7.26344 68.1522 16.9099C70.3385 19.9159 71.3212 23.863 70.7776 27.5981C70.2218 31.4184 68.0418 35.0979 63.8975 37.17C61.3716 38.433 58.6658 40.4578 57.0003 42.7122C55.3617 44.9302 55.0432 46.8488 55.92 48.6024C57.572 51.9063 59.0294 56.0175 58.7829 59.9605C58.656 61.9917 58.0712 64.0451 56.7698 65.8742C55.4649 67.7081 53.5775 69.1221 51.1606 70.0889C45.6547 72.2913 39.462 72.3881 33.7753 71.3142C28.0805 70.2387 22.6401 67.9437 18.5204 65.06C12.5177 60.8582 7.7329 55.2775 5.35528 48.2694C2.96993 41.2386 3.11215 33.078 6.43818 23.9309C11.386 10.3237 23.6327 3.92047 35.9428 3.1938ZM36.3111 9.43294C25.8308 10.0516 16.2025 15.3671 12.3119 26.0667C9.38788 34.1083 9.41831 40.792 11.2739 46.2614C13.1373 51.7537 16.9463 56.3291 22.1045 59.9398C25.4501 62.2816 30.0527 64.2507 34.9351 65.1727C39.8254 66.0963 44.7439 65.9241 48.8394 64.2859C50.9625 63.4367 52.3992 61.9055 52.5451 59.5706C52.6893 57.2636 51.8029 54.3435 50.3299 51.3975C48.0121 46.7618 49.5443 42.2863 51.9734 38.9984C54.3756 35.7468 57.9546 33.1537 61.1024 31.5799C63.2081 30.527 64.296 28.7378 64.5928 26.6982C64.9019 24.5735 64.3221 22.2695 63.0977 20.5861C57.6137 13.046 46.904 8.80764 36.3111 9.43294Z" fill="#0F0F0F"/>
</svg>
