<svg width="57" height="69" viewBox="0 0 57 69" fill="none" xmlns="http://www.w3.org/2000/svg">
<path fill-rule="evenodd" clip-rule="evenodd" d="M5.75494 0C0.938428 0 -1.73934 6.08412 1.26951 10.1913L25.6279 43.4411V62.7273H11.2675C9.68133 62.7273 8.39546 64.1315 8.39546 65.8636C8.39546 67.5958 9.68133 69 11.2675 69H45.7325C47.3187 69 48.6045 67.5958 48.6045 65.8636C48.6045 64.1315 47.3187 62.7273 45.7325 62.7273H31.3721V43.4411L55.7305 10.1913C58.7393 6.08412 56.0616 0 51.2451 0H5.75494ZM14.9456 18.8182L5.75494 6.27273H51.2451L42.0544 18.8182H14.9456ZM19.5409 25.0909L28.5 37.3203L37.4591 25.0909L19.5409 25.0909Z" fill="#0F0F0F"/>
</svg>
