<svg width="64" height="64" viewBox="0 0 64 64" fill="none" xmlns="http://www.w3.org/2000/svg">
<path fill-rule="evenodd" clip-rule="evenodd" d="M15.1065 7.31206C15.9867 4.54554 18.5561 2.66675 21.4593 2.66675H35.135C39.9211 2.66675 43.1479 7.56043 41.2626 11.9595L37.2452 21.3334H48.6413C54.6353 21.3334 57.5844 28.6274 53.2748 32.7933L25.1481 59.9824C22.0087 63.0172 16.9715 59.5441 18.6915 55.5308L26.4903 37.3334H14.6714C10.1594 37.3334 6.95054 32.945 8.3186 28.6454L15.1065 7.31206ZM21.4593 8.00008C20.8787 8.00008 20.3648 8.37584 20.1888 8.92914L13.4009 30.2625C13.1273 31.1224 13.769 32.0001 14.6714 32.0001H29.7256C32.023 32.0001 33.5719 34.349 32.6669 36.4606L26.2016 51.5462L49.568 28.9587C50.4299 28.1255 49.8401 26.6667 48.6413 26.6667H34.0099C31.7126 26.6667 30.1637 24.3178 31.0687 22.2062L36.3605 9.85864C36.7375 8.97882 36.0922 8.00008 35.135 8.00008H21.4593Z" fill="#0F0F0F"/>
</svg>
