<svg width="69" height="69" viewBox="0 0 69 69" fill="none" xmlns="http://www.w3.org/2000/svg">
<path d="M41.9 3.19285L39.625 7.74283C39.5693 7.85411 39.4791 7.94434 39.3678 7.99998L34.8179 10.275C34.394 10.4869 34.3941 11.0917 34.8179 11.3036L39.3678 13.5785C39.4791 13.6342 39.5693 13.7244 39.625 13.8357L41.9 18.3857C42.1119 18.8095 42.7167 18.8095 42.9286 18.3857L45.2035 13.8357C45.2592 13.7244 45.3494 13.6342 45.4607 13.5785L50.0107 11.3036C50.4345 11.0917 50.4345 10.4869 50.0107 10.275L45.4607 7.99998C45.3494 7.94434 45.2592 7.85411 45.2035 7.74283L42.9286 3.19285C42.7167 2.76905 42.1119 2.76905 41.9 3.19285Z" fill="#0F0F0F"/>
<path d="M55.3206 14.5827L53.082 21.2984C53.0247 21.4701 52.89 21.6049 52.7183 21.6621L46.0025 23.9007C45.4783 24.0754 45.4783 24.8169 46.0025 24.9917L52.7183 27.2303C52.89 27.2875 53.0247 27.4222 53.082 27.5939L55.3206 34.3097C55.4953 34.8339 56.2368 34.8339 56.4115 34.3097L58.6501 27.5939C58.7074 27.4222 58.8421 27.2875 59.0138 27.2303L65.7296 24.9917C66.2538 24.8169 66.2538 24.0754 65.7296 23.9007L59.0138 21.6621C58.8421 21.6049 58.7074 21.4701 58.6501 21.2984L56.4115 14.5827C56.2368 14.0584 55.4953 14.0584 55.3206 14.5827Z" fill="#0F0F0F"/>
<path fill-rule="evenodd" clip-rule="evenodd" d="M29.9216 39.2846C38.0502 47.4131 50.7487 48.1168 59.4094 41.3145C59.5166 41.2303 59.6232 41.1449 59.7292 41.0584C60.1299 40.7312 60.5216 40.3876 60.9033 40.0275C61.0581 39.8814 61.2113 39.7327 61.3627 39.5812C62.8351 38.1088 65.8558 38.9786 65.4112 41.0128C65.2575 41.7158 65.0799 42.4111 64.8792 43.0977C64.7602 43.5049 64.6331 43.9091 64.4981 44.3099C64.4612 44.4195 64.4237 44.5287 64.3856 44.6378C60.0808 56.9658 48.2671 66.1258 34.5 66.1258C17.034 66.1258 2.875 51.9668 2.875 34.5008C2.875 20.5078 12.3362 8.57492 24.9231 4.43473L25.0771 4.3845C25.3532 4.29527 25.6307 4.20979 25.9097 4.12812C26.6501 3.91132 27.4005 3.72133 28.1596 3.55927C30.2966 3.10309 31.1701 6.29836 29.625 7.84344C29.4717 7.99672 29.3212 8.15173 29.1735 8.30843C28.8811 8.61859 28.5995 8.93533 28.3288 9.25817C28.2695 9.32896 28.2107 9.40002 28.1524 9.47138C21.0728 18.1368 21.6906 31.0536 29.9216 39.2846ZM25.8558 43.3504C33.7089 51.2035 45.0581 53.5609 54.8757 50.2242C50.1057 56.3568 42.6938 60.3758 34.5 60.3758C20.2096 60.3758 8.625 48.7912 8.625 34.5008C8.625 26.1384 12.8125 18.6059 19.1492 13.8531C15.5701 23.7783 17.875 35.3697 25.8558 43.3504Z" fill="#0F0F0F"/>
</svg>
