<svg width="64" height="64" viewBox="0 0 64 64" fill="none" xmlns="http://www.w3.org/2000/svg">
<path fill-rule="evenodd" clip-rule="evenodd" d="M32 47.9999C39.3638 47.9999 45.3333 42.0304 45.3333 34.6666C45.3333 27.3028 39.3638 21.3333 32 21.3333C24.6362 21.3333 18.6666 27.3028 18.6666 34.6666C18.6666 42.0304 24.6362 47.9999 32 47.9999ZM32 42.6855C27.5712 42.6855 23.981 39.0953 23.981 34.6666C23.981 30.2379 27.5712 26.6476 32 26.6476C36.4287 26.6476 40.0189 30.2379 40.0189 34.6666C40.0189 39.0953 36.4287 42.6855 32 42.6855Z" fill="#0F0F0F"/>
<path fill-rule="evenodd" clip-rule="evenodd" d="M25.4974 5.33325C21.8265 5.33325 18.6266 7.83163 17.7363 11.393L16.5846 15.9999H10.6666C6.24835 15.9999 2.66663 19.5816 2.66663 23.9999V50.6666C2.66663 55.0849 6.24835 58.6666 10.6666 58.6666H53.3333C57.7516 58.6666 61.3333 55.0849 61.3333 50.6666V23.9999C61.3333 19.5816 57.7516 15.9999 53.3333 15.9999H47.4154L46.2636 11.393C45.3733 7.83163 42.1734 5.33325 38.5025 5.33325H25.4974ZM22.9104 12.6865C23.2072 11.4994 24.2738 10.6666 25.4974 10.6666H38.5025C39.7261 10.6666 40.7928 11.4994 41.0895 12.6865L42.2413 17.2934C42.8348 19.6677 44.9681 21.3333 47.4154 21.3333H53.3333C54.8061 21.3333 56 22.5272 56 23.9999V50.6666C56 52.1393 54.8061 53.3333 53.3333 53.3333H10.6666C9.19387 53.3333 7.99996 52.1393 7.99996 50.6666V23.9999C7.99996 22.5272 9.19387 21.3333 10.6666 21.3333H16.5846C19.0319 21.3333 21.1651 19.6677 21.7586 17.2934L22.9104 12.6865Z" fill="#0F0F0F"/>
</svg>
