<svg width="75" height="75" viewBox="0 0 75 75" fill="none" xmlns="http://www.w3.org/2000/svg">
<path d="M57.8125 18.75C62.1272 18.75 65.625 15.2522 65.625 10.9375C65.625 6.62278 62.1272 3.125 57.8125 3.125C53.4977 3.125 50 6.62278 50 10.9375C50 15.2522 53.4977 18.75 57.8125 18.75Z" fill="#0F0F0F"/>
<path d="M29.6865 12.3053L23.3437 16.2695C22.2271 16.9674 21.875 18.1217 21.875 19.3617C21.875 21.8162 24.5748 23.3126 26.6562 22.0117L32.5579 18.3232C33.6529 17.6388 35.0561 17.6984 36.0892 18.4731L40.625 21.875L29.0394 33.4606C28.4308 34.0692 27.8736 34.727 27.3733 35.4273L21.7067 43.3606C20.8844 44.5118 19.3912 44.967 18.0665 44.4703L10.0315 41.4571C8.73186 40.9698 7.26779 41.442 6.49788 42.5969C5.52505 44.0561 6.01307 46.0356 7.55272 46.8754L15.2784 51.0894C19.1334 53.1921 23.9314 52.3373 26.823 49.0326L32.8125 42.1875L38.4378 50.0629C39.7834 51.9468 39.9774 54.4201 38.9421 56.4907L33.5112 67.3525C32.4723 69.4303 33.9833 71.875 36.3063 71.875C37.777 71.875 39.1926 71.6147 39.9262 70.1475L46.0861 57.8277C47.5467 54.9066 47.3818 51.4359 45.6508 48.6664L40.625 40.625L50 31.25L54.2882 34.1088C58.1457 36.6805 62.4158 36.4864 66.6132 35.0873C68.0667 34.6028 68.75 33.2646 68.75 31.8139C68.75 29.8829 67.016 28.414 65.1112 28.7315C62.9541 29.091 59.8317 30.2965 58.2351 28.1677C53.0171 21.2104 46.8587 16.3104 39.2081 12.0601C36.226 10.4034 32.5793 10.4973 29.6865 12.3053Z" fill="#0F0F0F"/>
</svg>
