<svg width="67" height="67" viewBox="0 0 67 67" fill="none" xmlns="http://www.w3.org/2000/svg">
<path fill-rule="evenodd" clip-rule="evenodd" d="M5.58329 2.79175C4.0415 2.79175 2.79163 4.04162 2.79163 5.58341C2.79163 7.12521 4.0415 8.37508 5.58329 8.37508H8.98696L18.9371 48.1756C16.0039 49.4784 13.9583 52.417 13.9583 55.8334C13.9583 60.4588 17.7079 64.2084 22.3333 64.2084C26.9587 64.2084 30.7083 60.4588 30.7083 55.8334C30.7083 54.8546 30.5404 53.9149 30.2317 53.0417H42.3515C42.0429 53.9149 41.875 54.8546 41.875 55.8334C41.875 60.4588 45.6246 64.2084 50.25 64.2084C54.8753 64.2084 58.625 60.4588 58.625 55.8334C58.625 51.208 54.8753 47.4584 50.25 47.4584H24.513L23.1171 41.8751H50.25C56.0124 41.8751 59.4678 38.2344 61.3852 34.2143C63.2588 30.2861 63.911 25.5911 64.1385 22.1762C64.4552 17.4205 60.524 13.9584 56.1714 13.9584H16.138L14.4036 7.02092C13.7822 4.53541 11.549 2.79175 8.98696 2.79175H5.58329ZM50.25 36.2917H21.7213L17.5338 19.5417H56.1714C57.7154 19.5417 58.6426 20.6772 58.5675 21.8052C58.3553 24.9917 57.7612 28.843 56.3457 31.8108C54.974 34.6867 53.0978 36.2917 50.25 36.2917ZM50.25 58.6079C48.7177 58.6079 47.4755 57.3657 47.4755 55.8334C47.4755 54.3011 48.7177 53.059 50.25 53.059C51.7822 53.059 53.0244 54.3011 53.0244 55.8334C53.0244 57.3657 51.7822 58.6079 50.25 58.6079ZM19.5589 55.8334C19.5589 57.3657 20.801 58.6079 22.3333 58.6079C23.8656 58.6079 25.1077 57.3657 25.1077 55.8334C25.1077 54.3011 23.8656 53.059 22.3333 53.059C20.801 53.059 19.5589 54.3011 19.5589 55.8334Z" fill="#0F0F0F"/>
</svg>
