<svg width="69" height="69" viewBox="0 0 69 69" fill="none" xmlns="http://www.w3.org/2000/svg">
<path fill-rule="evenodd" clip-rule="evenodd" d="M4.98258 2.97939C5.98078 2.7029 7.05054 2.98473 7.78295 3.71714L65.2829 61.2171C66.4057 62.3399 66.4057 64.1602 65.2829 65.283C64.1602 66.4058 62.3398 66.4058 61.2171 65.283L40.25 44.3159L37.1284 47.4376C34.8855 49.6805 31.2467 49.6876 28.9986 47.4395L9.46731 27.9081C4.55151 22.9924 2.92912 17.2564 2.52748 12.8385C2.32686 10.6318 2.42673 8.72713 2.57816 7.36423C2.66396 6.59195 2.77278 5.81359 2.95953 5.05813C3.20737 4.06135 3.99253 3.25362 4.98258 2.97939ZM8.25405 12.32C8.5715 15.808 9.82452 20.1336 13.533 23.8421L33.0625 43.3717L36.1842 40.2501L8.25405 12.32Z" fill="#0F0F0F"/>
<path d="M52.3455 5.15464C53.4682 6.27739 53.4682 8.09774 52.3455 9.2205L44.02 17.546C42.9958 18.5702 42.9828 20.0499 43.6959 21.2384L54.0296 10.9046C55.1524 9.78188 56.9727 9.78188 58.0955 10.9046C59.2182 12.0274 59.2182 13.8477 58.0955 14.9705L47.7617 25.3043C48.9502 26.0174 50.4299 26.0043 51.4542 24.9801L59.7796 16.6546C60.9024 15.5319 62.7227 15.5319 63.8455 16.6546C64.9682 17.7774 64.9682 19.5977 63.8455 20.7205L55.52 29.046C52.7215 31.8445 48.3774 32.3793 44.9837 30.3431L43.5707 29.4953L42.283 30.783C41.1602 31.9058 39.3399 31.9058 38.2171 30.783C37.0944 29.6602 37.0944 27.8399 38.2171 26.7171L39.5049 25.4294L38.6571 24.0164C36.6208 20.6227 37.1556 16.2787 39.9542 13.4801L48.2796 5.15464C49.4024 4.03188 51.2227 4.03188 52.3455 5.15464Z" fill="#0F0F0F"/>
<path d="M23.5955 49.4705C24.7182 48.3477 24.7182 46.5274 23.5955 45.4046C22.4727 44.2819 20.6524 44.2819 19.5296 45.4046L3.71713 61.2171C2.59437 62.3399 2.59437 64.1602 3.71713 65.283C4.83988 66.4058 6.66023 66.4058 7.78299 65.283L23.5955 49.4705Z" fill="#0F0F0F"/>
</svg>
