<svg width="69" height="69" viewBox="0 0 69 69" fill="none" xmlns="http://www.w3.org/2000/svg">
<path d="M48.875 34.5C48.875 42.4391 42.4391 48.875 34.5 48.875C26.5609 48.875 20.125 42.4391 20.125 34.5C20.125 26.5609 26.5609 20.125 34.5 20.125C42.4391 20.125 48.875 26.5609 48.875 34.5ZM25.8906 34.5C25.8906 39.2548 29.7452 43.1094 34.5 43.1094C39.2548 43.1094 43.1094 39.2548 43.1094 34.5C43.1094 29.7452 39.2548 25.8906 34.5 25.8906C29.7452 25.8906 25.8906 29.7452 25.8906 34.5Z" fill="#0F0F0F"/>
<path d="M31.625 2.875C31.625 1.28718 32.9122 0 34.5 0C36.0878 0 37.375 1.28718 37.375 2.875V11.5C37.375 13.0878 36.0878 14.375 34.5 14.375C32.9122 14.375 31.625 13.0878 31.625 11.5V2.875Z" fill="#0F0F0F"/>
<path d="M2.875 37.375C1.28718 37.375 6.94058e-08 36.0878 0 34.5C-6.94058e-08 32.9122 1.28718 31.625 2.875 31.625H11.5C13.0878 31.625 14.375 32.9122 14.375 34.5C14.375 36.0878 13.0878 37.375 11.5 37.375H2.875Z" fill="#0F0F0F"/>
<path d="M10.1048 14.1707C8.98207 13.0479 8.98207 11.2276 10.1048 10.1048C11.2276 8.98208 13.0479 8.98208 14.1707 10.1048L20.2695 16.2036C21.3922 17.3264 21.3922 19.1467 20.2695 20.2695C19.1467 21.3923 17.3264 21.3923 16.2036 20.2695L10.1048 14.1707Z" fill="#0F0F0F"/>
<path d="M14.1706 58.8952C13.0479 60.0179 11.2275 60.0179 10.1047 58.8952C8.98199 57.7724 8.98199 55.9521 10.1047 54.8293L16.2035 48.7305C17.3263 47.6077 19.1467 47.6077 20.2694 48.7305C21.3922 49.8533 21.3922 51.6736 20.2694 52.7964L14.1706 58.8952Z" fill="#0F0F0F"/>
<path d="M31.625 57.5C31.625 55.9122 32.9122 54.625 34.5 54.625C36.0878 54.625 37.375 55.9122 37.375 57.5V66.125C37.375 67.7128 36.0878 69 34.5 69C32.9122 69 31.625 67.7128 31.625 66.125V57.5Z" fill="#0F0F0F"/>
<path d="M57.5 37.375C55.9122 37.375 54.625 36.0878 54.625 34.5C54.625 32.9122 55.9122 31.625 57.5 31.625H66.125C67.7128 31.625 69 32.9122 69 34.5C69 36.0878 67.7128 37.375 66.125 37.375H57.5Z" fill="#0F0F0F"/>
<path d="M48.7305 52.7964C47.6077 51.6736 47.6077 49.8533 48.7305 48.7305C49.8532 47.6078 51.6736 47.6078 52.7963 48.7305L58.8951 54.8293C60.0179 55.9521 60.0179 57.7724 58.8951 58.8952C57.7724 60.018 55.952 60.018 54.8292 58.8952L48.7305 52.7964Z" fill="#0F0F0F"/>
<path d="M52.7964 20.2695C51.6736 21.3922 49.8533 21.3922 48.7305 20.2695C47.6078 19.1467 47.6078 17.3264 48.7305 16.2036L54.8293 10.1048C55.9521 8.98205 57.7724 8.98205 58.8952 10.1048C60.018 11.2276 60.018 13.0479 58.8952 14.1707L52.7964 20.2695Z" fill="#0F0F0F"/>
</svg>
