<svg width="81" height="81" viewBox="0 0 81 81" fill="none" xmlns="http://www.w3.org/2000/svg">
<path d="M74.6271 28.5121C75.4619 30.1767 77.4881 30.851 79.1546 30.018C80.7827 29.2042 81.4732 27.0926 80.6546 25.471C79.9001 24.0106 78.9459 22.6377 77.8645 21.4023C76.2111 19.5132 73.2442 16.875 69.2052 16.875C67.2018 16.875 65.3971 17.5387 63.896 18.2736C62.417 18.9979 61.0299 19.8887 59.6292 20.7504C56.825 22.4756 54.6287 23.6246 52.3259 23.6246C51.0494 23.6246 50.7661 23.0884 50.2201 21.9919C49.8344 21.2159 49.1452 19.8291 47.8766 18.7421C46.3899 17.4682 44.4921 16.875 42.1983 16.875C38.305 16.875 35.0259 18.7216 31.886 20.8166C29.2452 22.5766 27.528 23.6246 25.319 23.6246C24.2446 23.6246 23.8033 23.3736 23.5858 23.2155C23.0926 22.8569 22.7607 22.3025 22.4465 21.7776C21.8275 20.7436 21.1734 19.7095 20.2985 18.8699C19.03 17.6525 17.3555 16.875 15.1914 16.875C13.2264 16.875 11.3381 17.5138 9.77149 18.2508C8.16946 19.0045 6.66247 19.9768 5.39911 20.8953C3.84734 22.0235 2.35179 23.2602 0.988767 24.6131C-0.329589 25.931 -0.329589 28.0679 0.988767 29.3858C2.30663 30.7033 4.44369 30.7031 5.76216 29.3866C6.8781 28.2839 8.10275 27.2755 9.37029 26.354C10.4278 25.5851 11.5582 24.8699 12.6464 24.358C14.5519 23.4616 15.649 23.6321 16.7595 25.4133C17.314 26.3003 18.1806 27.6315 19.6147 28.6741C21.1379 29.7816 23.0175 30.3743 25.319 30.3743C29.7272 30.3743 33.0091 28.1832 35.4136 26.5778C37.4554 25.2155 39.6356 23.6246 42.1983 23.6246C43.4037 23.6246 43.7179 24.0847 44.2426 25.1339C44.8651 26.384 45.5729 27.5864 46.6475 28.5072C48.1342 29.7811 50.032 30.3743 52.3259 30.3743C56.7747 30.3743 60.4862 28.1485 63.1678 26.4988C64.3821 25.7495 65.5828 24.9635 66.8659 24.3352C67.9495 23.8047 68.6767 23.6246 69.2052 23.6246C70.23 23.6246 71.4829 24.3612 72.7833 25.847C73.4925 26.6572 74.1254 27.5574 74.6271 28.5121Z" fill="#0F0F0F"/>
<path d="M79.1546 46.893C77.4881 47.726 75.4619 47.0517 74.6271 45.3871C74.1254 44.4324 73.4925 43.5322 72.7833 42.722C71.4829 41.2362 70.23 40.4996 69.2052 40.4996C68.6767 40.4996 67.9495 40.6797 66.8659 41.2102C65.5829 41.8384 64.382 42.6246 63.1678 43.3738C60.4862 45.0235 56.7747 47.2493 52.3259 47.2493C50.032 47.2493 48.1342 46.6561 46.6475 45.3822C45.5729 44.4614 44.8651 43.259 44.2426 42.0089C43.7179 40.9597 43.4037 40.4996 42.1983 40.4996C39.6357 40.4996 37.4554 42.0905 35.4136 43.4528C33.0091 45.0582 29.7272 47.2493 25.319 47.2493C23.0175 47.2493 21.1379 46.6566 19.6147 45.5491C18.1806 44.5065 17.314 43.1753 16.7595 42.2883C15.649 40.5071 14.5519 40.3366 12.6464 41.233C11.5582 41.7449 10.4278 42.4601 9.37029 43.229C8.10275 44.1505 6.8781 45.1589 5.76216 46.2616C4.44369 47.5781 2.30663 47.5783 0.988767 46.2608C-0.329589 44.9429 -0.329589 42.806 0.988767 41.4881C2.35179 40.1352 3.84734 38.8985 5.39911 37.7703C6.66247 36.8518 8.16946 35.8795 9.77149 35.1258C11.3381 34.3888 13.2264 33.75 15.1914 33.75C17.3555 33.75 19.03 34.5275 20.2985 35.7449C21.1734 36.5845 21.8275 37.6186 22.4465 38.6526C22.7607 39.1775 23.0926 39.7319 23.5858 40.0905C23.8033 40.2486 24.2446 40.4996 25.319 40.4996C27.528 40.4996 29.2452 39.4516 31.886 37.6916C35.0259 35.5966 38.305 33.75 42.1983 33.75C44.4921 33.75 46.3899 34.3432 47.8766 35.6171C49.1452 36.7041 49.8344 38.0909 50.2201 38.8669C50.7661 39.9634 51.0494 40.4996 52.3259 40.4996C54.6287 40.4996 56.825 39.3506 59.6292 37.6254C61.03 36.7637 62.417 35.8729 63.896 35.1486C65.3971 34.4137 67.2018 33.75 69.2052 33.75C73.2442 33.75 76.2111 36.3882 77.8645 38.2773C78.9459 39.5127 79.9001 40.8856 80.6546 42.346C81.4732 43.9676 80.7827 46.0792 79.1546 46.893Z" fill="#0F0F0F"/>
<path d="M79.1546 63.768C77.4881 64.601 75.4619 63.9267 74.6271 62.2621C74.1254 61.3074 73.4925 60.4072 72.7833 59.597C71.4829 58.1112 70.23 57.3746 69.2052 57.3746C68.6767 57.3746 67.9495 57.5547 66.8659 58.0852C65.5828 58.7135 64.3821 59.4995 63.1678 60.2488C60.4862 61.8985 56.7747 64.1243 52.3259 64.1243C50.032 64.1243 48.1342 63.5311 46.6475 62.2572C45.5729 61.3363 44.8651 60.134 44.2426 58.8839C43.7179 57.8347 43.4037 57.3746 42.1983 57.3746C39.6357 57.3746 37.4553 58.9655 35.4136 60.3278C33.0091 61.9332 29.7272 64.1243 25.319 64.1243C23.0175 64.1243 21.1379 63.5316 19.6147 62.4241C18.1806 61.3815 17.314 60.0503 16.7595 59.1633C15.649 57.3821 14.5519 57.2116 12.6464 58.108C11.5582 58.6199 10.4278 59.3351 9.37029 60.104C8.10275 61.0255 6.8781 62.0339 5.76216 63.1366C4.44369 64.4531 2.30663 64.4533 0.988767 63.1358C-0.329589 61.8179 -0.329589 59.681 0.988767 58.3631C2.35179 57.0102 3.84734 55.7735 5.39911 54.6453C6.66247 53.7268 8.16946 52.7545 9.77149 52.0009C11.3381 51.2638 13.2264 50.625 15.1914 50.625C17.3555 50.625 19.03 51.4025 20.2985 52.6199C21.1734 53.4595 21.8275 54.4936 22.4465 55.5276C22.7607 56.0525 23.0926 56.6069 23.5858 56.9655C23.8033 57.1236 24.2446 57.3746 25.319 57.3746C27.528 57.3746 29.2452 56.3266 31.886 54.5666C35.0259 52.4716 38.305 50.625 42.1983 50.625C44.4921 50.625 46.3899 51.2182 47.8766 52.4921C49.1452 53.5791 49.8344 54.9659 50.2201 55.7419C50.7661 56.8384 51.0494 57.3746 52.3259 57.3746C54.6287 57.3746 56.825 56.2256 59.6292 54.5004C61.03 53.6387 62.417 52.7479 63.896 52.0236C65.3971 51.2887 67.2018 50.625 69.2052 50.625C73.2442 50.625 76.2111 53.2632 77.8645 55.1523C78.9459 56.3877 79.9001 57.7606 80.6546 59.221C81.4732 60.8426 80.7827 62.9542 79.1546 63.768Z" fill="#0F0F0F"/>
</svg>
