<?xml version="1.0" ?>
<!-- Uploaded to: SVG Repo, www.svgrepo.com, Generator: SVG Repo Mixer Tools -->
<svg width="800px" height="800px" viewBox="0 0 108 108" id="Layeri" xmlns="http://www.w3.org/2000/svg" xmlns:xlink="http://www.w3.org/1999/xlink">
<defs>
<style>.cls-1{fill:none;}.cls-2{clip-path:url(#clip-path);}</style>
<clipPath id="clip-path">
<rect class="cls-1" height="104" width="104" x="2" y="2"/>
</clipPath>
</defs>
<title/>
<g class="cls-2">
<g id="Line">
<path d="M95.58,29H87V20a8.34,8.34,0,0,0,8-8.37V10.37A8.37,8.37,0,0,0,86.63,2H77V6h9.63A4.37,4.37,0,0,1,91,10.37v1.25A4.35,4.35,0,0,1,86.82,16a20.57,20.57,0,0,0-8.74,2.23A22.52,22.52,0,0,0,69.3,27C66,32.34,65.12,37.33,64.44,41.34,63.71,45.66,63.23,48,61,49.27c-.6.35-2.18,1.27-3.3.85-2.8-1-3.06-9.9-3.25-16.38-.25-8.64-.47-16.1-5-17.51a4.32,4.32,0,0,0-1.29-.2A7.51,7.51,0,0,0,44,17.76a9,9,0,0,1-5.51,2.1A6.46,6.46,0,0,1,35,18.42a11.4,11.4,0,0,0-6.87-2.28,22.32,22.32,0,0,0-4.39.87l-.35.09a4.32,4.32,0,0,1-3.71-.78A4.26,4.26,0,0,1,18,12.94V10.37A4.37,4.37,0,0,1,22.37,6H65V2H22.37A8.37,8.37,0,0,0,14,10.37v2.57a8.31,8.31,0,0,0,8,8.28V98a8,8,0,0,0,8,8h9v-4H30a4,4,0,0,1-4-4V93H83v5a4,4,0,0,1-4,4H51v4H79a8,8,0,0,0,8-8V74h8.58A10.43,10.43,0,0,0,106,63.58V39.42A10.43,10.43,0,0,0,95.58,29ZM83,89H26V20.56a11.78,11.78,0,0,1,2.23-.42,7.51,7.51,0,0,1,4.58,1.65,10,10,0,0,0,5.69,2.07,12.87,12.87,0,0,0,7.78-2.8c.84-.57,1.63-1.11,2-1,1.81.56,2.06,8.85,2.2,13.81.27,9.28.53,18,5.87,20a5.79,5.79,0,0,0,2,.35A9.51,9.51,0,0,0,63,52.73c4-2.3,4.65-6.39,5.39-10.72.65-3.86,1.39-8.23,4.31-13a18.61,18.61,0,0,1,7.22-7.27A16,16,0,0,1,83,20.58Zm4-49h8V63H87Zm15,23.58A6.43,6.43,0,0,1,95.58,70H87V67h8.58A3.42,3.42,0,0,0,99,63.58V39.42A3.42,3.42,0,0,0,95.58,36H87V33h8.58A6.43,6.43,0,0,1,102,39.42Z"/>
<path d="M37,84a2,2,0,0,1-2-2V43a2,2,0,0,1,4,0V82A2,2,0,0,1,37,84Z"/>
<path d="M54,84a2,2,0,0,1-2-2V62.51a2,2,0,0,1,4,0V82A2,2,0,0,1,54,84Z"/>
<path d="M70,84a2,2,0,0,1-2-2V62.51a2,2,0,0,1,4,0V82A2,2,0,0,1,70,84Z"/>
<rect height="4" rx="2" ry="2" width="4" x="43" y="102"/>
<rect height="4" rx="2" ry="2" width="4" x="69" y="2"/>
</g>
</g>
</svg>